<?xml version="1.0" encoding="utf-8"?>
<svg viewBox="0 0 300 394" xmlns="http://www.w3.org/2000/svg">
  <g transform="matrix(0.1, 0, 0, -0.1, 0, 394.000006)" fill="#000000" stroke="none">
    <path d="M 485 2849 C 293 2326 134 1890 132 1880 C 130 1868 137 1861 157 1858 C 172 1855 262 1838 355 1821 C 656 1765 1013 1727 1323 1718 L 1410 1715 L 1410 2725 L 1410 3736 L 1253 3748 C 1166 3755 1041 3769 975 3780 C 909 3791 851 3800 845 3800 C 840 3800 678 3372 485 2849 Z M 945 3755 C 962 3753 995 3749 1020 3746 C 1045 3743 1092 3738 1125 3734 C 1199 3725 1187 3726 1298 3716 L 1390 3708 L 1389 2734 C 1388 1964 1386 1759 1376 1750 C 1362 1739 1230 1750 1219 1749 C 1196 1748 1108 1751 1056 1756 C 962 1764 895 1770 865 1774 C 849 1777 804 1781 766 1785 C 728 1789 689 1793 680 1795 C 671 1797 639 1801 609 1805 C 579 1809 536 1816 513 1821 C 491 1826 448 1832 418 1836 C 389 1839 340 1847 310 1855 C 280 1862 236 1871 213 1875 C 189 1879 168 1885 166 1889 C 163 1892 192 1979 229 2080 C 267 2182 348 2402 409 2570 C 471 2738 559 2979 606 3105 C 653 3232 709 3382 730 3440 C 792 3609 838 3734 846 3753 C 851 3768 859 3771 884 3765 C 901 3761 929 3757 945 3755 Z"/>
    <path d="M 2020 3779 C 1962 3769 1842 3755 1752 3748 L 1590 3736 L 1592 2727 L 1595 1717 L 1700 1719 C 1912 1722 2273 1757 2505 1796 C 2635 1817 2864 1862 2869 1866 C 2871 1868 2714 2304 2519 2835 C 2208 3683 2163 3799 2145 3799 C 2134 3798 2078 3789 2020 3779 Z M 2174 3693 C 2189 3650 2205 3606 2210 3595 C 2219 3576 2285 3397 2412 3050 C 2446 2959 2486 2849 2502 2805 C 2519 2761 2543 2694 2556 2655 C 2570 2617 2585 2576 2590 2565 C 2596 2554 2611 2514 2624 2475 C 2638 2437 2660 2376 2673 2340 C 2686 2304 2727 2195 2764 2097 C 2800 1999 2830 1910 2830 1899 C 2830 1888 2823 1880 2813 1879 C 2803 1879 2784 1876 2770 1874 C 2751 1870 2673 1849 2575 1835 C 2535 1830 2509 1825 2460 1815 C 2446 1812 2415 1808 2390 1805 C 2365 1803 2336 1799 2325 1796 C 2300 1791 2223 1782 2145 1775 C 2112 1772 2067 1767 2045 1765 C 1985 1759 1785 1748 1700 1746 L 1625 1745 L 1623 2728 L 1620 3710 L 1663 3711 C 1686 3711 1714 3713 1725 3715 C 1736 3718 1792 3724 1850 3730 C 1908 3736 1971 3743 1990 3746 C 2009 3749 2042 3753 2063 3755 C 2085 3757 2104 3761 2108 3764 C 2111 3767 2121 3770 2130 3770 C 2143 3770 2155 3748 2174 3693 Z"/>
    <circle style="fill: rgb(239, 137, 47);" transform="matrix(1, 0, 0, -1, 0, 0)" cx="1261.35" cy="-1856.137" r="66.385"/>
    <circle style="fill: rgb(239, 137, 47);" transform="matrix(1, 0, 0, -1, 0, 0)" cx="2682.162" cy="-1960.193" r="66.385"/>
    <circle style="fill: rgb(239, 137, 47);" transform="matrix(1, 0, 0, -1, 0, 0)" cx="1747.849" cy="-2630.365" r="66.385"/>
    <circle style="fill: rgb(239, 137, 47);" transform="matrix(1, 0, 0, -1, 0, 0)" cx="913.953" cy="-2647.829" r="66.385"/>
    <circle style="fill: rgb(239, 137, 47);" transform="matrix(1, 0, 0, -1, 0, 0)" cx="905.524" cy="-3668.612" r="66.385"/>
    <circle style="fill: rgb(239, 137, 47);" transform="matrix(1, 0, 0, -1, 0, 0)" cx="1898.777" cy="-3646.783" r="66.385"/>
  </g>
</svg>